<svg width="420" height="420" xmlns="http://www.w3.org/2000/svg">

 <g>
  <title>Layer 1</title>
  <line stroke-linecap="undefined" stroke-linejoin="undefined" id="svg_1" y2="171.13509" x2="176.27026" y1="387.13509" x1="65.27026" stroke="#ffff00" fill="none"/>
  <path id="svg_3" d="m176.69721,170.62102l175.44641,-85.54761" opacity="undefined" stroke-linecap="undefined" stroke-linejoin="undefined" stroke="#ffff00" fill="none"/>
  <line stroke="#007f00" id="svg_15" y2="171.08747" x2="176.46073" y1="64.5331" x1="99.03507" fill="none"/>
  <line id="svg_9" y2="202.99224" x2="213.60359" y1="406.32557" x1="111.22264" stroke="#ffff00" fill="none"/>
  <path id="svg_11" d="m375.03216,122.03985l-161.42857,80.95238" opacity="undefined" stroke="#ffff00" fill="none"/>
  <rect transform="rotate(-26 214.491 85.7408)" id="svg_12" height="57.61905" width="87.14286" y="56.93126" x="170.91979" stroke="#000000" fill="none"/>
  <rect transform="rotate(-152 79.8913 230.996)" id="svg_16" height="101.42857" width="58.09524" y="180.28161" x="50.84413" stroke="#000000" fill="none"/>
  <line id="svg_17" y2="266.32557" x2="46.93692" y1="249.18271" x1="44.55597" stroke="#000000" fill="none"/>
  <path id="svg_19" d="m37.98698,258.95072l16.19048,-2.38095" opacity="undefined" stroke="#000000" fill="none"/>
  <line transform="rotate(-59 178.576 82.5835)" stroke="#000000" id="svg_20" y2="92.05157" x2="179.76597" y1="73.11547" x1="177.38502" fill="none"/>
  <line transform="rotate(-62 178.751 82.8385)" stroke="#000000" id="svg_21" y2="81.75798" x2="187.7893" y1="83.91908" x1="169.71289" fill="none"/>
  <ellipse stroke="#ff0000" ry="3.1294" rx="3.01122" id="svg_23" cy="82.87133" cx="178.83355" fill="#ff0000"/>
  <ellipse stroke="#ff0000" ry="3.1294" rx="3.01122" id="svg_24" cy="258.18479" cx="45.77942" fill="#ff0000"/>
  <ellipse stroke="#ff0000" ry="3.1294" rx="3.01122" id="svg_25" cy="65.04049" cx="98.78764" fill="#ff0000"/>
  <ellipse stroke="#ff0000" ry="3.1294" rx="3.01122" id="svg_26" cy="170.31885" cx="176.3231" fill="#ff0000"/>
  <ellipse stroke="#ff0000" ry="3.1294" rx="3.01122" id="svg_27" cy="85.38178" cx="351.63656" fill="#ff0000"/>
  <ellipse stroke="#ff0000" ry="3.1294" rx="3.01122" id="svg_28" cy="121.78339" cx="375.48588" fill="#ff0000"/>
  <ellipse stroke="#ff0000" ry="3.1294" rx="3.01122" id="svg_29" cy="203.37318" cx="213.56152" fill="#ff0000"/>
  <ellipse stroke="#ff0000" ry="3.1294" rx="3.01122" id="svg_30" cy="129.73316" cx="188.45696" fill="#ff0000"/>
  <ellipse stroke="#ff0000" ry="3.1294" rx="3.01122" id="svg_31" cy="79.10565" cx="163.77082" fill="#ff0000"/>
  <ellipse stroke="#ff0000" ry="3.1294" rx="3.01122" id="svg_32" cy="92.07633" cx="266.69949" fill="#ff0000"/>
  <ellipse stroke="#ff0000" ry="3.1294" rx="3.01122" id="svg_33" cy="40.19359" cx="241.17653" fill="#ff0000"/>
  <ellipse stroke="#ff0000" ry="3.1294" rx="3.01122" id="svg_34" cy="172.82931" cx="77.57852" fill="#ff0000"/>
  <ellipse stroke="#ff0000" ry="3.1294" rx="3.01122" id="svg_35" cy="199.6075" cx="129.04285" fill="#ff0000"/>
  <ellipse stroke="#ff0000" ry="3.1294" rx="3.01122" id="svg_36" cy="288.72866" cx="81.3442" fill="#ff0000"/>
  <ellipse stroke="#ff0000" ry="3.1294" rx="3.01122" id="svg_37" cy="261.11365" cx="31.1351" fill="#ff0000"/>
  <ellipse stroke="#ff0000" ry="3.1294" rx="3.01122" id="svg_38" cy="385.79961" cx="65.02624" fill="#ff0000"/>
  <ellipse stroke="#ff0000" ry="3.1294" rx="3.01122" id="svg_39" cy="406.72007" cx="110.63285" fill="#ff0000"/>
  <ellipse ry="4.3933" rx="4.18409" id="svg_41" cy="162.64447" cx="164.82975" stroke="#007f00" fill="none"/>
  <ellipse ry="4.3933" rx="4.18409" id="svg_42" cy="143.39765" cx="150.60383" stroke="#007f00" fill="none"/>
  <ellipse ry="4.3933" rx="4.18409" id="svg_43" cy="126.66128" cx="138.46996" stroke="#007f00" fill="none"/>
  <ellipse ry="4.3933" rx="4.18409" id="svg_44" cy="111.2715" cx="127.19119" stroke="#007f00" fill="none"/>
  <ellipse ry="4.3933" rx="4.18409" id="svg_45" cy="94.02536" cx="115.03905" stroke="#007f00" fill="none"/>
  <rect transform="rotate(-57 141.19 177.289)" id="svg_47" height="12.97069" width="12.97069" y="170.80345" x="134.70428" stroke="#000000" fill="none"/>
  <line id="svg_58" y2="197.47134" x2="177.69384" y1="386.55431" x1="79.44056" stroke="#0000ff" fill="none"/>
  <g transform="rotate(-93 177.655 197.915)" id="svg_50">
   <path transform="rotate(-57 177.655 198.03)" id="svg_49" d="m171.16972,191.54505l12.97069,0l0,12.97069l-12.97069,0l0,-12.97069z" opacity="undefined" stroke="#000000" fill="none"/>
   <line stroke="#000000" id="svg_46" y2="207.11956" x2="179.44457" y1="188.70954" x1="175.77226" fill="none"/>
  </g>
  <g transform="rotate(-150 329.328 107.208)" id="svg_54">
   <path transform="rotate(-57 329.328 107.324)" id="svg_52" d="m322.84221,100.83895l12.97069,0l0,12.97068l-12.97069,0l0,-12.97068z" opacity="undefined" stroke="#000000" fill="none"/>
   <line stroke="#000000" id="svg_53" y2="116.41345" x2="331.11706" y1="98.00344" x1="327.44475" fill="none"/>
  </g>
  <path id="svg_60" d="m191.66764,174.32723l138.42794,-67.68559" opacity="undefined" stroke="#0000ff" fill="none"/>
  <line id="svg_64" y2="107.07832" x2="329.22222" y1="91.79448" x1="365.03008" stroke="#0000ff" fill="none"/>
  <ellipse stroke="#ff0000" ry="3.1294" rx="3.01122" id="svg_55" cy="106.91353" cx="329.38934" fill="#ff0000"/>
  <line stroke="#0000ff" id="svg_59" y2="174.76391" x2="192.10432" y1="197.47134" x1="178.5672" fill="none"/>
  <ellipse stroke="#ff0000" ry="3.1294" rx="3.01122" id="svg_56" cy="197.99139" cx="177.71684" fill="#ff0000"/>
  <ellipse stroke="#ff0000" ry="3.1294" rx="3.01122" id="svg_57" cy="177.54533" cx="141.28569" fill="#ff0000"/>
  <ellipse stroke="#ff0000" ry="3.34774" rx="3.01122" id="svg_61" cy="174.33388" cx="192.60082" fill="#ff0000"/>
  <ellipse stroke="#ff0000" ry="3.1294" rx="3.01122" id="svg_62" cy="386.7793" cx="79.50038" fill="#ff0000"/>
  <ellipse stroke="#ff0000" ry="3.1294" rx="3.01122" id="svg_65" cy="91.58279" cx="365.0899" fill="#ff0000"/>
  <text style="cursor: move;" stroke="#ff0000" xml:space="preserve" text-anchor="start" font-family="'Noto Sans Display'" font-size="6" stroke-width="0" id="svg_69" y="124.10889" x="382.934" fill="#000000">r1D: 2, r2D: 1</text>
  <text stroke="#ff0000" xml:space="preserve" text-anchor="start" font-family="'Noto Sans Display'" font-size="6" stroke-width="0" id="svg_70" y="208.38837" x="219.61523" fill="#000000">r1D: 2, r2D: 2</text>
  <text transform="rotate(-26 276.244 22.8691)" style="cursor: move;" stroke="#ff0000" xml:space="preserve" text-anchor="start" font-family="'Noto Sans Display'" font-size="6" stroke-width="0" id="svg_71" y="25.19194" x="244.50606" fill="#000000">r1D: 2, r2D: 1, s1D: 0.10</text>
  <text transform="rotate(61 360.772 162.318)" stroke="#ff0000" xml:space="preserve" text-anchor="start" font-family="'Noto Sans Display'" font-size="6" stroke-width="0" id="svg_72" y="164.72025" x="306.95147" fill="#000000">Element: Točka, SlojID: 71, TipID: 322020</text>
  <text transform="rotate(28 234.571 228.257)" stroke="#ff0000" xml:space="preserve" text-anchor="start" font-family="'Noto Sans Display'" font-size="6" stroke-width="0" id="svg_73" y="230.65912" x="180.75061" fill="#000000">Element: Točka, SlojID: 71, TipID: 322020</text>
  <text transform="rotate(34 88.2831 140.589)" stroke="#ff0000" xml:space="preserve" text-anchor="start" font-family="'Noto Sans Display'" font-size="6" stroke-width="0" id="svg_74" y="142.99103" x="34.46239" fill="#000000">Element: Točka, SlojID: 70, TipID: 321020</text>
  <text transform="rotate(54 140.605 110.353)" stroke="#ff0000" xml:space="preserve" text-anchor="start" font-family="'Noto Sans Display'" font-size="6" stroke-width="0" id="svg_75" y="112.75519" x="87.30082" fill="#000000">Element: Linija, SlojID: 52, TipID: 351030</text>
  <text transform="rotate(-63 161.54 319.96)" stroke="#ff0000" xml:space="preserve" text-anchor="start" font-family="'Noto Sans Display'" font-size="6" stroke-width="0" id="svg_76" y="322.36218" x="113.06501" fill="#000000">Element: Linija, SlojID: 21, TipID: null</text>
  <text transform="rotate(62 338.115 137.992)" stroke="#ff0000" xml:space="preserve" text-anchor="start" font-family="'Noto Sans Display'" font-size="6" stroke-width="0" id="svg_77" y="140.3153" x="317.45191" fill="#000000">r1D: 93, r2D: 93</text>
  <ellipse ry="4.3933" rx="4.18409" id="svg_78" cy="78.74152" cx="103.68534" stroke="#007f00" fill="none"/>
  <text transform="rotate(-26 301.134 76.2836)" stroke="#ff0000" xml:space="preserve" text-anchor="start" font-family="'Noto Sans Display'" font-size="6" stroke-width="0" id="svg_79" y="78.60653" x="269.39689" fill="#000000">r1D: 2, r2D: 1, s1D: 0.10</text>
  <text style="cursor: move;" stroke="#ff0000" xml:space="preserve" text-anchor="start" font-family="'Noto Sans Display'" font-size="6" stroke-width="0" id="svg_80" y="93.10453" x="372.89034" fill="#000000">r1D: 94, r2D: 94</text>
  <text stroke="#ff0000" xml:space="preserve" text-anchor="start" font-family="'Noto Sans Display'" font-size="6" stroke-width="0" id="svg_81" y="78.25736" x="336.6458" fill="#000000">r1D: 2, r2D: 1</text>
  <text transform="rotate(-33 94.0107 56.2838)" style="cursor: move;" stroke="#ff0000" xml:space="preserve" text-anchor="start" font-family="'Noto Sans Display'" font-size="6" stroke-width="0" id="svg_82" y="58.60671" x="60.66327" fill="#000000">r1D: 93, r2D: 1, s1D: 0.01</text>
  <text transform="rotate(-26 261.537 121.866)" stroke="#ff0000" xml:space="preserve" text-anchor="start" font-family="'Noto Sans Display'" font-size="6" stroke-width="0" id="svg_83" y="124.26755" x="213.06224" fill="#000000">Element: Linija, SlojID: 21, TipID: null</text>
  <text transform="rotate(-63 132.745 298.563)" stroke="#ff0000" xml:space="preserve" text-anchor="start" font-family="'Noto Sans Display'" font-size="6" stroke-width="0" id="svg_85" y="300.9648" x="79.44055" fill="#000000">Element: Linija, SlojID: 71, TipID: 322060</text>
  <text transform="rotate(-61 68.0592 312.008)" stroke="#ff0000" xml:space="preserve" text-anchor="start" font-family="'Noto Sans Display'" font-size="6" stroke-width="0" id="svg_86" y="314.28021" x="46.71101" fill="#000000">r1D: 93, r2D: 93</text>
  <text transform="rotate(31 44.4116 151.236)" stroke="#ff0000" xml:space="preserve" text-anchor="start" font-family="'Noto Sans Display'" font-size="6" stroke-width="0" id="svg_87" y="153.50881" x="9.45084" fill="#000000">r1D: 93, r2D: 93, s1D: 0.01</text>
  <text stroke="#ff0000" xml:space="preserve" text-anchor="start" font-family="'Noto Sans Display'" font-size="6" stroke-width="0" id="svg_88" y="411.00846" x="117.86851" fill="#000000">r1D: 2, r2D: 1</text>
  <text stroke="#ff0000" xml:space="preserve" text-anchor="start" font-family="'Noto Sans Display'" font-size="6" stroke-width="0" id="svg_89" y="376.51064" x="27.0388" fill="#000000">r1D: 2, r2D: 1</text>
  <text transform="rotate(-26 239.945 87.4327)" stroke="#ff0000" xml:space="preserve" text-anchor="start" font-family="'Noto Sans Display'" font-size="6" stroke-width="0" id="svg_91" y="89.8344" x="183.59216" fill="#000000">Element: Poligon, SlojID: 26, TipID: 312030</text>
  <text transform="rotate(-26 232.073 66.8433)" stroke="#ff0000" xml:space="preserve" text-anchor="start" font-family="'Noto Sans Display'" font-size="6" stroke-width="0" id="svg_92" y="69.24479" x="175.72011" fill="#000000">Element: Točka, SlojID: 26, TipID: 312030</text>
  <rect transform="rotate(27 172.937 230.208)" stroke="#ff7f00" id="svg_93" height="8.71208" width="48.24561" y="225.85242" x="148.81398" fill="none"/>
  <text transform="rotate(28 249.089 264.318)" stroke="#ff0000" xml:space="preserve" text-anchor="start" font-family="'Noto Sans Display'" font-size="6" stroke-width="0" id="svg_95" y="266.59042" x="195.95545" fill="#000000">Element: Poligon, SlojID: 901, TipID: null</text>
  <text stroke="#ff0000" xml:space="preserve" text-anchor="start" font-family="'Noto Sans Display'" font-size="6" stroke-width="0" id="svg_96" y="401.13175" x="43.7054" fill="#000000">r1D: 94, r2D: 94</text>
  <text transform="rotate(-61 17.8218 287.971)" stroke="#ff0000" xml:space="preserve" text-anchor="start" font-family="'Noto Sans Display'" font-size="6" stroke-width="0" id="svg_97" y="290.21223" x="-3.52238" fill="#000000">r1D: 93, r2D: 93</text>
  <text transform="rotate(-62 93.134 227.059)" stroke="#ff0000" xml:space="preserve" text-anchor="start" font-family="'Noto Sans Display'" font-size="6" stroke-width="0" id="svg_98" y="229.30021" x="36.8977" fill="#000000">Element: Poligon, SlojID: 26, TipID: 312030</text>
  <text transform="rotate(-62 77.0623 219.594)" stroke="#ff0000" xml:space="preserve" text-anchor="start" font-family="'Noto Sans Display'" font-size="6" stroke-width="0" id="svg_99" y="221.836" x="23.3574" fill="#000000">Element: Točka, SlojID: 26, TipID: 312030</text>
  <text transform="rotate(-61 129.329 217.86)" stroke="#ff0000" xml:space="preserve" text-anchor="start" font-family="'Noto Sans Display'" font-size="6" stroke-width="0" id="svg_100" y="220.13311" x="107.98135" fill="#000000">r1D: 93, r2D: 93</text>
  <ellipse stroke="#ff0000" ry="3.1294" rx="3.01122" id="svg_101" cy="223.51943" cx="149.72281" fill="#ff0000"/>
  <ellipse stroke="#ff0000" ry="3.1294" rx="3.01122" id="svg_102" cy="214.55305" cx="153.60824" fill="#ff0000"/>
  <ellipse stroke="#ff0000" ry="3.1294" rx="3.01122" id="svg_103" cy="237.26791" cx="196.64692" fill="#ff0000"/>
  <ellipse stroke="#ff0000" ry="3.1294" rx="3.01122" id="svg_104" cy="245.03877" cx="192.76148" fill="#ff0000"/>
  <text transform="rotate(-26 216.825 168.284)" stroke="#ff0000" xml:space="preserve" text-anchor="start" font-family="'Noto Sans Display'" font-size="6" stroke-width="0" id="svg_107" y="170.71077" x="195.48551" fill="#000000">r1D: 94, r2D: 94</text>
  <text transform="rotate(27 203.697 220.021)" stroke="#ff0000" xml:space="preserve" text-anchor="start" font-family="'Noto Sans Display'" font-size="6" stroke-width="0" id="svg_108" y="222.4485" x="183.08363" fill="#000000">r1D: 93, r2D: 93</text>
  <text transform="rotate(-61 70.9594 211.086)" stroke="#ff0000" xml:space="preserve" text-anchor="start" font-family="'Noto Sans Display'" font-size="6" stroke-width="0" id="svg_109" y="213.51311" x="23.66211" fill="#000000">r1D: 91, r2D: 91, s1D: null, s2D: null</text>
  <text transform="rotate(-25 227.516 59.6237)" stroke="#ff0000" xml:space="preserve" text-anchor="start" font-family="'Noto Sans Display'" font-size="6" stroke-width="0" id="svg_110" y="61.94662" x="180.1948" fill="#000000">r1D: 91, r2D: 91, s1D: null, s2D: null</text>
  <text transform="rotate(34 108.122 143.885)" stroke="#ff0000" xml:space="preserve" text-anchor="start" font-family="'Noto Sans Display'" font-size="6" stroke-width="0" id="svg_111" y="146.20831" x="73.16429" fill="#000000">r1D: 93, r2D: 93, s1D: 0.01</text>
  <text transform="rotate(28 252.28 276.607)" stroke="#ff0000" xml:space="preserve" text-anchor="start" font-family="'Noto Sans Display'" font-size="6" stroke-width="0" id="svg_112" y="278.92964" x="190.60453" fill="#000000">(*vse točke ležečega policaja): r1D: 93, r2D: 93</text>
  <text transform="rotate(60 149.267 54.6202)" stroke="#ff0000" xml:space="preserve" text-anchor="start" font-family="'Noto Sans Display'" font-size="6" stroke-width="0" id="svg_113" y="56.94311" x="127.91804" fill="#000000">r1D: 93, r2D: 93</text>
  <text transform="rotate(64 177.474 125.966)" style="cursor: move;" stroke="#ff0000" xml:space="preserve" text-anchor="start" font-family="'Noto Sans Display'" font-size="6" stroke-width="0" id="svg_114" y="128.2889" x="156.12451" fill="#000000">r1D: 92, r2D: 91</text>
  <text transform="rotate(-26 199.911 160.092)" stroke="#ff0000" xml:space="preserve" text-anchor="start" font-family="'Noto Sans Display'" font-size="6" stroke-width="0" id="svg_115" y="162.41475" x="178.56162" fill="#000000">r1D: 92, r2D: 91</text>
 </g>
</svg>